<svg width="64" height="61" viewBox="0 0 64 61" fill="none" xmlns="http://www.w3.org/2000/svg">
<path d="M45.247 12.5161L33.446 0.610055C33.25 0.415055 33.017 0.26106 32.761 0.15606C32.504 0.0510604 32.23 -0.00194544 31.953 5.45578e-05C31.401 0.00205456 30.872 0.221055 30.481 0.610055L0.612 30.374C0.22 30.768 0 31.301 0 31.857C0 32.412 0.22 32.946 0.612 33.34L12.517 45.245C12.714 45.44 12.947 45.5941 13.203 45.6991C13.459 45.8041 13.734 45.857 14.011 45.855C14.562 45.853 15.091 45.634 15.483 45.245L21.436 39.2921L39.294 21.4341L45.247 15.4811C45.639 15.0871 45.859 14.5541 45.859 13.9981C45.859 13.4431 45.639 12.9101 45.247 12.5161ZM37.801 16.9751L36.307 15.4811C35.913 15.0901 35.38 14.87 34.824 14.87C34.269 14.87 33.735 15.0901 33.341 15.4811C33.144 15.6771 32.988 15.9101 32.881 16.1661C32.774 16.4221 32.719 16.6971 32.719 16.9751C32.719 17.2531 32.774 17.5271 32.881 17.7841C32.988 18.0401 33.144 18.2731 33.341 18.4681L34.835 19.9621L31.848 22.928L27.389 18.4681C26.986 18.1241 26.469 17.9441 25.939 17.9641C25.41 17.9851 24.908 18.2041 24.533 18.5791C24.158 18.9531 23.939 19.4551 23.918 19.9851C23.898 20.5141 24.078 21.0321 24.423 21.4341L28.882 25.8931L25.895 28.8801L24.423 27.387C24.027 26.991 23.489 26.7681 22.929 26.7681C22.369 26.7681 21.832 26.991 21.436 27.387C21.04 27.783 20.817 28.3201 20.817 28.8801C20.817 29.4411 21.04 29.978 21.436 30.374L22.929 31.846L19.963 34.833L15.483 30.374C15.089 29.982 14.556 29.762 14 29.762C13.444 29.762 12.911 29.982 12.517 30.374C12.125 30.768 11.906 31.301 11.906 31.857C11.906 32.412 12.125 32.946 12.517 33.34L16.976 37.799L14.011 40.786L5.07098 31.846L31.848 5.06905L40.788 14.0091L37.801 16.9751Z" fill="#FF3343"/>
<path d="M23.1379 61H60.9999C61.5579 61 62.0929 60.778 62.4869 60.384C62.8819 59.989 63.1039 59.454 63.1039 58.897V21.034C63.1039 20.477 62.8819 19.942 62.4869 19.547C62.0929 19.153 61.5579 18.931 60.9999 18.931H48.379C47.822 18.931 47.286 19.153 46.892 19.547C46.498 19.942 46.2759 20.477 46.2759 21.034V44.172H23.1379C22.5799 44.172 22.0449 44.394 21.6509 44.788C21.2559 45.183 21.0349 45.718 21.0349 46.276V58.897C21.0349 59.454 21.2559 59.989 21.6509 60.384C22.0449 60.778 22.5799 61 23.1379 61ZM25.241 48.379H29.4479V50.483C29.4479 51.041 29.67 51.576 30.064 51.97C30.459 52.365 30.9939 52.586 31.5519 52.586C32.1099 52.586 32.6449 52.365 33.0389 51.97C33.4339 51.576 33.655 51.041 33.655 50.483V48.379H37.8619V50.483C37.8619 51.041 38.084 51.576 38.478 51.97C38.873 52.365 39.4079 52.586 39.9659 52.586C40.5229 52.586 41.0579 52.365 41.4529 51.97C41.8469 51.576 42.0689 51.041 42.0689 50.483V48.379H46.2759V50.483C46.2759 51.041 46.498 51.576 46.892 51.97C47.286 52.365 47.822 52.586 48.379 52.586C48.937 52.586 49.4719 52.365 49.8669 51.97C50.2609 51.576 50.4829 51.041 50.4829 50.483V48.379H52.5859C53.1439 48.379 53.6789 48.158 54.0739 47.763C54.4679 47.369 54.6899 46.834 54.6899 46.276C54.6899 45.718 54.4679 45.183 54.0739 44.788C53.6789 44.394 53.1439 44.172 52.5859 44.172H50.4829V39.966H52.5859C53.1439 39.966 53.6789 39.744 54.0739 39.349C54.4679 38.955 54.6899 38.42 54.6899 37.862C54.6899 37.304 54.4679 36.769 54.0739 36.375C53.6789 35.98 53.1439 35.759 52.5859 35.759H50.4829V31.552H52.5859C53.1439 31.552 53.6789 31.33 54.0739 30.936C54.4679 30.541 54.6899 30.006 54.6899 29.448C54.6899 28.89 54.4679 28.355 54.0739 27.961C53.6789 27.566 53.1439 27.345 52.5859 27.345H50.4829V23.138H58.8969V56.793H25.241V48.379Z" fill="#FF3343"/>
</svg>
