<svg width="22" height="18" viewBox="0 0 22 18" fill="none" xmlns="http://www.w3.org/2000/svg">
<path d="M22 2.15707C21.173 2.51707 20.299 2.75507 19.404 2.86407C20.348 2.29707 21.055 1.40606 21.395 0.354065C20.508 0.885065 19.537 1.25905 18.524 1.46005C17.847 0.722052 16.945 0.231056 15.961 0.0640562C14.976 -0.103944 13.964 0.0620645 13.083 0.535065C12.202 1.00806 11.503 1.76106 11.094 2.67706C10.685 3.59306 10.59 4.61906 10.824 5.59506C9.03001 5.50406 7.27599 5.03407 5.67499 4.21707C4.07299 3.40007 2.66099 2.25305 1.52899 0.852051C1.13199 1.54905 0.923011 2.33808 0.924011 3.14008C0.923011 3.88608 1.10501 4.62008 1.45401 5.27808C1.80301 5.93608 2.30899 6.49706 2.92599 6.91006C2.20899 6.89106 1.507 6.69705 0.880005 6.34705V6.40207C0.885005 7.44707 1.25001 8.45706 1.91101 9.26306C2.57201 10.0691 3.49101 10.6201 4.51001 10.8241C4.11801 10.9441 3.70999 11.0071 3.29999 11.0121C3.01599 11.0091 2.733 10.9831 2.453 10.9351C2.743 11.8331 3.305 12.6191 4.06 13.1811C4.815 13.7441 5.72599 14.0561 6.66599 14.0751C5.07899 15.3301 3.11901 16.0151 1.10001 16.0201C0.732006 16.0221 0.365 15.9991 0 15.9541C2.062 17.2921 4.46501 18.0021 6.91901 17.9991C8.61301 18.0171 10.293 17.6951 11.861 17.0531C13.43 16.4111 14.856 15.4611 16.055 14.2591C17.254 13.0561 18.203 11.6261 18.846 10.0511C19.489 8.47606 19.813 6.78906 19.8 5.08606C19.8 4.89806 19.8 4.69906 19.8 4.50006C20.663 3.85306 21.408 3.06007 22 2.15707Z" fill="#ffffff"/>
</svg>
