<svg width="26" height="18" viewBox="0 0 26 18" fill="none" xmlns="http://www.w3.org/2000/svg">
<path d="M25.994 6.34402C26.052 4.67802 25.683 3.02502 24.919 1.53802C24.401 0.928023 23.682 0.516022 22.888 0.374022C19.601 0.0810217 16.302 -0.0399636 13.002 0.0140364C9.71499 -0.0419636 6.42695 0.0740354 3.15195 0.363035C2.50495 0.479035 1.90495 0.778028 1.42795 1.22403C0.36495 2.19003 0.247 3.84204 0.129 5.23804C-0.043 7.74904 -0.043 10.268 0.129 12.779C0.163 13.565 0.280943 14.345 0.482943 15.106C0.624943 15.694 0.912956 16.237 1.32096 16.688C1.80196 17.158 2.41597 17.474 3.08097 17.596C5.62697 17.906 8.19297 18.034 10.758 17.98C14.892 18.038 18.518 17.98 22.805 17.654C23.487 17.54 24.118 17.223 24.612 16.747C24.943 16.421 25.19 16.022 25.333 15.583C25.755 14.306 25.962 12.97 25.947 11.627C25.994 10.975 25.994 7.04202 25.994 6.34402ZM10.333 12.325V5.12204L17.325 8.74103C15.364 9.81103 12.778 11.022 10.333 12.325Z" fill="#ffffff"/>
</svg>
